<svg width="152" height="24" viewBox="0 0 152 24" fill="none" xmlns="http://www.w3.org/2000/svg">
<path fill-rule="evenodd" clip-rule="evenodd" d="M3.97633 15.6045C3.97633 17.2273 4.38226 18.4995 5.19498 19.422C6.00706 20.345 7.12954 20.8061 8.5622 20.8061C9.18214 20.8061 9.71121 20.781 10.1494 20.7298C10.5874 20.6795 10.9456 20.6237 11.2239 20.5627V11.4373C10.8815 11.2143 10.4271 11.0067 9.86089 10.8136C9.29424 10.6212 8.69022 10.5246 8.04905 10.5246C6.63804 10.5246 5.60643 10.9809 4.95443 11.8934C4.30201 12.8061 3.97633 14.0432 3.97633 15.6045ZM15.1038 23.1181C14.3342 23.3415 13.3667 23.544 12.2018 23.7265C11.0364 23.909 9.81269 24.0002 8.53014 24.0002C7.20406 24.0002 6.01768 23.8071 4.97057 23.4222C3.92283 23.0374 3.03049 22.4846 2.29272 21.7646C1.55516 21.0448 0.988721 20.1728 0.592978 19.1486C0.197447 18.1247 0 16.9736 0 15.696C0 14.4388 0.165176 13.2981 0.496802 12.2739C0.828216 11.2502 1.31462 10.373 1.956 9.64295C2.5976 8.91292 3.37762 8.35005 4.29713 7.95473C5.216 7.559 6.27415 7.36144 7.47178 7.36144C8.28386 7.36144 8.99998 7.45287 9.62034 7.63533C10.2403 7.81778 10.7747 8.02078 11.2239 8.24351V0.608352L15.1038 0.000366211V23.1181Z" fill="#101426"/>
<path fill-rule="evenodd" clip-rule="evenodd" d="M31.1699 14.0837C31.1699 13.5768 31.0948 13.0949 30.9453 12.6386C30.7956 12.1824 30.5767 11.7871 30.2882 11.4524C29.9995 11.1177 29.6466 10.8545 29.2298 10.6616C28.8129 10.469 28.3161 10.3726 27.7388 10.3726C27.1401 10.3726 26.6163 10.4791 26.1673 10.692C25.7185 10.9048 25.3386 11.184 25.0289 11.5285C24.7187 11.8735 24.4782 12.2688 24.3075 12.7147C24.1361 13.161 24.0187 13.6173 23.9546 14.0837H31.1699ZM19.9139 15.7262C19.9139 14.3268 20.133 13.1002 20.5715 12.0455C21.0095 10.9914 21.5922 10.114 22.3192 9.41439C23.0455 8.71477 23.8794 8.18774 24.8204 7.8327C25.7609 7.47806 26.7231 7.30023 27.7067 7.30023C30.0156 7.30023 31.8164 7.97991 33.11 9.33846C34.4032 10.6972 35.0501 12.7252 35.0501 15.4221C35.0501 15.6249 35.0448 15.8531 35.0341 16.1065C35.0231 16.3604 35.007 16.5886 34.9862 16.7908H23.9225C24.0291 18.0684 24.5047 19.057 25.3495 19.7568C26.194 20.4562 27.418 20.8062 29.0213 20.8062C29.9619 20.8062 30.8221 20.7253 31.6028 20.5627C32.383 20.4006 32.9979 20.228 33.4469 20.0456L33.9601 23.0571C33.7461 23.1588 33.4518 23.2653 33.0779 23.3765C32.7038 23.4881 32.2765 23.5894 31.7954 23.6806C31.3143 23.7718 30.7956 23.8477 30.24 23.9088C29.6837 23.9696 29.1175 24 28.5403 24C27.0653 24 25.7824 23.7918 24.6922 23.3765C23.602 22.961 22.7039 22.3831 21.9986 21.6426C21.2931 20.9025 20.7689 20.0305 20.4271 19.0266C20.0848 18.0228 19.9139 16.9231 19.9139 15.7262Z" fill="#101426"/>
<path fill-rule="evenodd" clip-rule="evenodd" d="M39.9564 8.21287C40.7044 8.01027 41.6772 7.81755 42.8748 7.63509C44.0718 7.45264 45.397 7.36121 46.8511 7.36121C48.219 7.36121 49.3632 7.53883 50.2825 7.89347C51.2013 8.24872 51.934 8.74533 52.479 9.38393C53.0242 10.0227 53.4089 10.7936 53.6336 11.6958C53.8582 12.5983 53.9703 13.5871 53.9703 14.6615V23.6046H50.0899V15.2396C50.0899 14.3878 50.0309 13.6628 49.9137 13.0647C49.7961 12.4668 49.6035 11.98 49.3366 11.6046C49.0689 11.2294 48.7057 10.9558 48.246 10.7834C47.7862 10.6112 47.225 10.5246 46.5624 10.5246C46.0707 10.5246 45.5573 10.5552 45.0232 10.616C44.4888 10.6766 44.0933 10.7276 43.8368 10.7681V23.6046H39.9564V8.21287Z" fill="#101426"/>
<path fill-rule="evenodd" clip-rule="evenodd" d="M59.3254 3.49798L63.2054 2.88959V7.69587H69.1702V10.768H63.2054V17.247C63.2054 18.5246 63.419 19.4373 63.847 19.9849C64.2746 20.5324 65.0013 20.8061 66.0276 20.8061C66.7331 20.8061 67.3583 20.7354 67.9036 20.5931C68.4488 20.4515 68.8817 20.3192 69.2022 20.1977L69.8436 23.1178C69.3948 23.3003 68.8063 23.4882 68.0798 23.6807C67.353 23.873 66.4974 23.9695 65.5144 23.9695C64.317 23.9695 63.3179 23.8175 62.516 23.5134C61.7143 23.2091 61.078 22.7682 60.608 22.1901C60.1375 21.6121 59.8065 20.9125 59.614 20.0912C59.4216 19.2698 59.3254 18.3321 59.3254 17.2776V3.49798Z" fill="#101426"/>
<path fill-rule="evenodd" clip-rule="evenodd" d="M79.6245 21.019C80.8215 21.019 81.7298 20.958 82.3502 20.8365V16.7605C82.1362 16.6997 81.826 16.6388 81.4203 16.5778C81.0139 16.5172 80.5651 16.4866 80.0732 16.4866C79.6456 16.4866 79.2125 16.5172 78.7745 16.5778C78.3363 16.6388 77.9407 16.7506 77.5881 16.9125C77.2352 17.075 76.9516 17.3032 76.7382 17.597C76.5242 17.8913 76.4176 18.2614 76.4176 18.7073C76.4176 19.5795 76.7062 20.1824 77.2834 20.5171C77.8605 20.8518 78.6409 21.019 79.6245 21.019ZM79.3035 7.30035C80.5865 7.30035 81.6657 7.4526 82.5425 7.7567C83.4189 8.06079 84.1189 8.48672 84.6431 9.03409C85.1667 9.58166 85.541 10.2462 85.7654 11.0266C85.9898 11.8076 86.1021 12.6645 86.1021 13.5969V23.2395C85.5032 23.3613 84.6002 23.5085 83.3924 23.6807C82.1844 23.8525 80.8215 23.9391 79.3035 23.9391C78.2985 23.9391 77.3796 23.8479 76.5459 23.6654C75.7121 23.4828 75.0011 23.1891 74.4134 22.7833C73.8251 22.378 73.3657 21.8509 73.0343 21.2015C72.7027 20.553 72.5375 19.7519 72.5375 18.7985C72.5375 17.8858 72.7241 17.1155 73.0986 16.4866C73.4723 15.8585 73.9805 15.3459 74.6219 14.9506C75.2631 14.5551 76.0057 14.2713 76.8505 14.0988C77.6947 13.9268 78.5766 13.8404 79.4961 13.8404C79.9235 13.8404 80.3725 13.8658 80.8428 13.9161C81.313 13.9673 81.8156 14.053 82.3502 14.1751V13.5665C82.3502 13.1406 82.2967 12.7352 82.1899 12.3497C82.0827 11.9649 81.8956 11.6251 81.6285 11.3309C81.3612 11.0371 81.0084 10.8089 80.5704 10.6464C80.1322 10.4843 79.5815 10.4029 78.9188 10.4029C78.021 10.4029 77.1977 10.4639 76.4497 10.5854C75.7011 10.7072 75.0918 10.8494 74.6219 11.0115L74.1408 8.03038C74.6323 7.86826 75.3482 7.70635 76.2894 7.54383C77.2299 7.38171 78.2346 7.30035 79.3035 7.30035Z" fill="#00A1E1"/>
<path fill-rule="evenodd" clip-rule="evenodd" d="M97.1655 23.9088C96.0112 23.8883 95.0541 23.7666 94.2953 23.5439C93.5361 23.3207 92.9325 23.0013 92.4835 22.5857C92.0346 22.1702 91.7191 21.6531 91.5374 21.0344C91.3557 20.4159 91.265 19.7111 91.265 18.9202V0.608187L95.1452 0V18.2204C95.1452 18.6669 95.1823 19.0417 95.2575 19.346C95.332 19.6503 95.466 19.9087 95.6583 20.1217C95.8509 20.3346 96.1122 20.4971 96.4441 20.6083C96.7751 20.72 97.1976 20.8062 97.7105 20.8668L97.1655 23.9088Z" fill="#00A1E1"/>
<path fill-rule="evenodd" clip-rule="evenodd" d="M107.171 23.9088C106.016 23.8883 105.059 23.7666 104.3 23.5439C103.541 23.3207 102.938 23.0013 102.489 22.5857C102.04 22.1702 101.724 21.6531 101.543 21.0344C101.361 20.4159 101.27 19.7111 101.27 18.9202V0.608187L105.15 0V18.2204C105.15 18.6669 105.187 19.0417 105.262 19.346C105.337 19.6503 105.471 19.9087 105.663 20.1217C105.856 20.3346 106.117 20.4971 106.449 20.6083C106.78 20.72 107.203 20.8062 107.716 20.8668L107.171 23.9088Z" fill="#00A1E1"/>
<path fill-rule="evenodd" clip-rule="evenodd" d="M115.008 22.9896C115.223 22.9896 115.408 22.9111 115.565 22.7542C115.721 22.5973 115.799 22.411 115.799 22.1952V13.8988H126.119V22.1952C126.119 22.411 126.198 22.5973 126.354 22.7542C126.51 22.9111 126.696 22.9896 126.911 22.9896H128.113C128.328 22.9896 128.514 22.9111 128.67 22.7542C128.827 22.5973 128.905 22.411 128.905 22.1952V3.18997C128.905 2.97422 128.827 2.7879 128.67 2.63099C128.514 2.47408 128.328 2.39563 128.113 2.39563H126.911C126.696 2.39563 126.51 2.47408 126.354 2.63099C126.198 2.7879 126.119 2.97422 126.119 3.18997V11.251H115.799V3.18997C115.799 2.97422 115.721 2.7879 115.565 2.63099C115.408 2.47408 115.223 2.39563 115.008 2.39563H113.805C113.59 2.39563 113.405 2.47408 113.248 2.63099C113.092 2.7879 113.014 2.97422 113.014 3.18997V22.1952C113.014 22.4306 113.092 22.6218 113.248 22.7689C113.405 22.916 113.59 22.9896 113.805 22.9896H115.008Z" fill="#101426"/>
<path fill-rule="evenodd" clip-rule="evenodd" d="M134.12 5.36705C134.335 5.36705 134.52 5.2886 134.677 5.13169C134.833 4.97479 134.911 4.78846 134.911 4.57271V2.89578C134.911 2.68003 134.833 2.49371 134.677 2.3368C134.52 2.17989 134.335 2.10144 134.12 2.10144H132.448C132.233 2.10144 132.048 2.17989 131.891 2.3368C131.735 2.49371 131.657 2.68003 131.657 2.89578V4.57271C131.657 4.78846 131.735 4.97479 131.891 5.13169C132.048 5.2886 132.233 5.36705 132.448 5.36705H134.12Z" fill="#101426"/>
<path fill-rule="evenodd" clip-rule="evenodd" d="M133.826 22.9896C134.041 22.9896 134.227 22.9111 134.383 22.7542C134.54 22.5973 134.618 22.411 134.618 22.1952V8.48556C134.618 8.26981 134.54 8.08349 134.383 7.92658C134.227 7.76968 134.041 7.69122 133.826 7.69122H132.742C132.527 7.69122 132.341 7.76968 132.185 7.92658C132.028 8.08349 131.95 8.26981 131.95 8.48556V22.1952C131.95 22.411 132.028 22.5973 132.185 22.7542C132.341 22.9111 132.527 22.9896 132.742 22.9896H133.826Z" fill="#101426"/>
<path fill-rule="evenodd" clip-rule="evenodd" d="M144.113 23.2838C145.305 23.2838 146.385 23.1367 147.353 22.8425C148.32 22.5483 149.146 22.1364 149.83 21.6068C150.515 21.0773 151.047 20.4448 151.428 19.7093C151.809 18.9738 152 18.1647 152 17.2821C152 16.5564 151.888 15.9043 151.663 15.3257C151.438 14.7471 151.081 14.2372 150.593 13.7959C150.104 13.3546 149.474 12.9574 148.702 12.6044C147.93 12.2513 146.986 11.9277 145.872 11.6335C144.778 11.3393 143.849 11.0745 143.087 10.8392C142.325 10.6038 141.694 10.3439 141.196 10.0595C140.697 9.77514 140.336 9.45642 140.111 9.10338C139.886 8.75034 139.774 8.31885 139.774 7.80891C139.774 7.29896 139.891 6.85276 140.126 6.4703C140.36 6.08784 140.673 5.76912 141.064 5.51415C141.455 5.25918 141.9 5.06795 142.398 4.94046C142.896 4.81298 143.419 4.74923 143.967 4.74923C144.69 4.74923 145.325 4.8522 145.872 5.05814C146.42 5.26408 146.884 5.50925 147.265 5.79364C147.646 6.07803 147.949 6.37223 148.174 6.67624C148.399 6.98025 148.56 7.23031 148.658 7.42645C148.794 7.70103 148.926 7.87755 149.053 7.95601C149.181 8.03446 149.352 8.07369 149.567 8.07369H150.769C150.945 8.07369 151.101 8.00994 151.238 7.88246C151.375 7.75497 151.433 7.60297 151.414 7.42645C151.394 6.93611 151.218 6.38204 150.886 5.76422C150.554 5.1464 150.07 4.56781 149.435 4.02845C148.799 3.48908 148.027 3.03307 147.118 2.66042C146.209 2.28777 145.159 2.10144 143.967 2.10144C142.794 2.10144 141.773 2.26325 140.903 2.58687C140.033 2.91049 139.31 3.33708 138.733 3.86664C138.156 4.39619 137.722 5.00421 137.428 5.69067C137.135 6.37714 136.989 7.08321 136.989 7.80891C136.989 8.47576 137.081 9.09358 137.267 9.66236C137.453 10.2311 137.761 10.7509 138.191 11.2216C138.621 11.6923 139.178 12.1091 139.862 12.472C140.546 12.8348 141.377 13.1437 142.354 13.3987C143.429 13.6733 144.392 13.9332 145.242 14.1783C146.092 14.4235 146.811 14.6932 147.397 14.9874C147.983 15.2816 148.433 15.6101 148.746 15.9729C149.058 16.3358 149.215 16.7722 149.215 17.2821C149.215 17.7921 149.078 18.253 148.804 18.6649C148.531 19.0767 148.159 19.4298 147.69 19.724C147.221 20.0182 146.679 20.2437 146.063 20.4006C145.447 20.5575 144.797 20.636 144.113 20.636C143.312 20.636 142.618 20.5379 142.031 20.3418C141.445 20.1457 140.947 19.9054 140.536 19.621C140.126 19.3366 139.798 19.0326 139.554 18.709C139.31 18.3854 139.129 18.0863 139.012 17.8117C138.894 17.5371 138.762 17.3606 138.616 17.2821C138.469 17.2037 138.298 17.1644 138.103 17.1644H136.901C136.725 17.1644 136.573 17.2282 136.446 17.3557C136.319 17.4832 136.256 17.6352 136.256 17.8117C136.275 18.4393 136.485 19.0767 136.886 19.724C137.287 20.3712 137.829 20.9596 138.513 21.4892C139.197 22.0187 140.018 22.4502 140.976 22.7836C141.934 23.1171 142.979 23.2838 144.113 23.2838Z" fill="#101426"/>
</svg>
